<?xml version="1.0" standalone="no"?>
<!DOCTYPE svg PUBLIC "-//W3C//DTD SVG 20010904//EN"
 "http://www.w3.org/TR/2001/REC-SVG-20010904/DTD/svg10.dtd">
<svg version="1.0" xmlns="http://www.w3.org/2000/svg"
 width="400.000000pt" height="300.000000pt" viewBox="0 0 400.000000 300.000000"
 preserveAspectRatio="xMidYMid meet">

<g transform="translate(0.000000,300.000000) scale(0.100000,-0.100000)"
fill="#000000" stroke="none">
<path d="M388 2349 c-47 -83 -84 -157 -82 -164 3 -7 14 -15 25 -18 15 -4 17
-2 10 12 -7 12 9 49 66 146 41 72 79 134 84 139 5 6 50 10 101 10 64 1 93 5
95 14 4 9 -21 12 -104 12 l-108 0 -87 -151z"/>
<path d="M820 2485 c0 -20 22 -65 32 -65 11 0 10 25 -4 55 -12 27 -28 33 -28
10z"/>
<path d="M1958 2368 c-15 -12 -168 -270 -168 -284 0 -4 37 -72 83 -150 l82
-144 166 0 c121 0 169 3 177 13 11 14 162 274 162 280 0 2 -37 69 -83 148
l-83 144 -160 3 c-118 2 -164 -1 -176 -10z m320 -30 c5 -7 41 -67 79 -133 l70
-120 -75 -133 -74 -132 -153 0 -154 0 -54 93 c-30 50 -64 110 -76 132 l-23 40
78 133 77 132 147 0 c106 0 150 -4 158 -12z"/>
<path d="M1039 2138 c-9 -17 5 -18 229 -18 176 0 242 -3 252 -12 12 -11 12
-10 1 4 -7 9 -27 19 -44 21 -28 3 -26 4 9 5 33 2 45 -3 58 -20 16 -23 16 -23
4 5 l-11 27 -121 1 c-390 4 -367 5 -377 -13z"/>
<path d="M370 2090 c-14 -9 -13 -11 9 -14 5 0 13 -5 18 -10 5 -5 3 -6 -4 -2
-7 4 -13 2 -13 -3 0 -6 7 -11 15 -11 18 0 19 11 3 33 -9 12 -17 14 -28 7z"/>
<path d="M1540 2070 c6 -11 13 -20 16 -20 2 0 0 9 -6 20 -6 11 -13 20 -16 20
-2 0 0 -9 6 -20z"/>
<path d="M1570 2070 c6 -11 13 -20 16 -20 2 0 0 9 -6 20 -6 11 -13 20 -16 20
-2 0 0 -9 6 -20z"/>
<path d="M1605 1980 c-9 -29 8 -46 25 -25 11 13 11 19 -2 32 -14 14 -17 13
-23 -7z"/>
<path d="M1645 1938 c4 -11 2 -18 -4 -18 -8 0 -6 -10 4 -30 9 -16 18 -30 21
-30 2 0 0 9 -6 19 -20 38 -9 45 14 8 35 -57 43 -59 11 -2 -30 55 -50 81 -40
53z"/>
<path d="M574 1908 c1 -7 15 -15 31 -16 25 -3 27 -2 16 12 -8 9 -19 16 -25 16
-6 0 -4 -5 4 -10 13 -8 13 -10 -2 -10 -9 0 -19 5 -21 10 -3 6 -4 5 -3 -2z"/>
<path d="M691 1778 c-23 -40 -27 -55 -19 -66 10 -11 15 -10 30 10 10 13 16 31
14 41 -2 9 0 15 5 12 4 -3 15 8 24 25 15 29 15 30 -5 30 -13 0 -29 -17 -49
-52z"/>
<path d="M1725 1800 c9 -16 18 -30 21 -30 2 0 -2 14 -11 30 -9 17 -18 30 -21
30 -2 0 2 -13 11 -30z"/>
<path d="M1730 1740 c6 -11 13 -20 16 -20 2 0 0 9 -6 20 -6 11 -13 20 -16 20
-2 0 0 -9 6 -20z"/>
<path d="M1824 1620 c0 -13 4 -16 10 -10 7 7 7 13 0 20 -6 6 -10 3 -10 -10z"/>
<path d="M654 1582 c2 -4 1 -14 -4 -22 -5 -8 -3 -25 7 -43 13 -27 16 -28 30
-14 14 14 13 19 -6 51 -13 20 -25 36 -27 36 -3 0 -3 -4 0 -8z"/>
<path d="M704 1441 c117 -209 187 -323 171 -278 -4 9 -4 17 0 17 4 0 14 -8 22
-17 17 -22 -34 73 -104 191 -36 62 -59 90 -72 91 -11 1 -19 -1 -17 -4z m69
-70 c19 -33 22 -45 7 -36 -14 9 -42 65 -32 65 4 0 15 -13 25 -29z"/>
<path d="M900 1103 l11 -23 309 0 c170 0 311 3 313 8 3 4 -135 6 -305 4 -287
-2 -311 -1 -325 15 -13 16 -13 16 -3 -4z"/>
<path d="M1043 1113 c20 -2 54 -2 75 0 20 2 3 4 -38 4 -41 0 -58 -2 -37 -4z"/>
<path d="M1363 1113 c20 -2 54 -2 75 0 20 2 3 4 -38 4 -41 0 -58 -2 -37 -4z"/>
<path d="M2005 1020 l-130 -6 122 -2 c68 -1 125 -6 128 -12 3 -5 10 -10 16
-10 11 0 12 27 2 32 -5 2 -66 1 -138 -2z"/>
<path d="M2180 923 c0 -23 15 -39 24 -25 3 5 -1 18 -9 28 -14 18 -14 18 -15
-3z"/>
<path d="M1057 857 c-20 -35 -37 -68 -37 -72 0 -5 18 -39 40 -77 l41 -68 78 0
79 0 42 71 42 70 -29 54 c-32 63 -51 90 -57 84 -2 -2 14 -34 36 -71 l39 -66
-38 -64 -38 -63 -75 0 -74 0 -38 64 -37 65 21 35 c12 20 30 51 40 69 11 17 16
32 11 32 -5 0 -26 -29 -46 -63z"/>
<path d="M1738 835 c-35 -62 -36 -67 -20 -84 9 -10 18 -24 20 -32 2 -8 28 -56
58 -106 l55 -93 51 0 c38 0 49 3 41 11 -6 6 -29 10 -50 8 -23 -3 -40 0 -40 6
0 6 -25 54 -56 106 -31 53 -59 103 -63 112 -3 9 10 42 30 76 20 35 30 61 23
61 -7 0 -29 -30 -49 -65z"/>
<path d="M2015 530 c3 -5 15 -10 26 -10 11 0 17 5 14 10 -3 6 -15 10 -26 10
-11 0 -17 -4 -14 -10z"/>
</g>
</svg>
